<svg width="172" height="38" viewBox="0 0 172 38" fill="none" xmlns="http://www.w3.org/2000/svg">
<path d="M171.486 25.452C168.888 23.6937 166.227 22.6853 163.981 22.1074C161.723 21.427 155.994 21.345 155.994 21.345H133.859C133.553 21.345 133.287 21.177 133.135 20.927L129.55 14.4222C129.402 14.1681 129.136 14 128.83 14H126.283L128.447 22.7796L162.885 23.7674L123.106 23.997C123.047 23.997 123 24.0462 123 24.1076C123 24.1691 123.047 24.2183 123.106 24.2183L171.717 26.8333C172.468 26.0546 171.486 25.452 171.486 25.452Z" fill="#004976"/>
<path d="M6.59128 26.8333C6.44842 26.8333 6.33333 26.948 6.33333 27.0904C6.33333 27.2328 6.44842 27.3475 6.59128 27.3475L136.117 27.5136L159.841 28C165.936 28 170.337 27.7073 171.567 27.0904C171.714 27.0192 171.865 26.9322 172 26.8333H6.59128Z" fill="#004976"/>
<path d="M56.7791 24.5H59.7688C63.7015 24.5 67 21.7111 67 18.2451C67 15.7159 65.0769 14 61.9678 14H58.9781C55.0948 14 51.8333 16.4994 51.8333 20.0377C51.8333 22.5967 53.7729 24.5 56.7791 24.5ZM58.6857 15.4009H61.6754C63.9074 15.4009 65.2993 16.6995 65.2993 18.5517C65.2993 21.0809 62.9108 23.1034 60.0611 23.1034H57.0715C54.8889 23.1034 53.497 21.7324 53.497 19.8802C53.497 17.2956 55.8855 15.4009 58.6857 15.4009Z" fill="#004976"/>
<path d="M77.5 23.0997H68.9268L70.8009 14H69.1615L67 24.5H77.2126L77.5 23.0997Z" fill="#004976"/>
<path d="M99.378 16.085L106.514 24.147C106.706 24.3588 106.948 24.5 107.235 24.5C107.684 24.5 108.156 24.1926 108.26 23.6693L110.167 14.1288H108.617L106.971 22.3526L99.7808 14.324C99.5736 14.0997 99.3473 14 99.1094 14C98.5991 14 98.1732 14.3281 98.0696 14.8473L96.1667 24.3712H97.7167L99.3818 16.085H99.378Z" fill="#004976"/>
<path d="M35.9897 23.0997H26.9119L27.4944 20.2268H35.4314L35.7005 18.9244H27.7635L28.4865 15.4045H37.5481L37.8333 14H27.1449L25 24.5H35.7045L35.9897 23.0997Z" fill="#004976"/>
<path d="M39.4101 24.5L39.9917 21.5237H46.7204L49.2613 24.5H51.5094L48.547 21.2768C50.6156 20.6423 51.8333 19.0669 51.8333 17.0316C51.8333 15.1837 50.5805 14 48.3167 14H39.9175L37.8333 24.5H39.4101ZM48.0357 15.4009C49.4525 15.4009 50.2487 15.9927 50.2487 17.219C50.2487 19.0541 49.1754 20.2251 47.0756 20.2251H40.2493L41.2133 15.4009H48.0357Z" fill="#004976"/>
<path d="M82.9599 21.6325H90.624L91.9577 24.5H93.8333L88.9097 14.437C88.7983 14.236 88.6099 14.0801 88.3755 14.0227C88.2179 13.9857 88.0603 13.9939 87.9219 14.0473C87.7375 14.1211 87.5453 14.2647 87.3838 14.437L78.6667 24.5H80.4962L82.9599 21.6325ZM87.945 15.8892L90.0359 20.3772H84.0822L87.945 15.8892Z" fill="#004976"/>
<path d="M119.901 24.5L120.16 23.0997H111.902L112.435 20.2268H119.653L119.894 18.9244H112.676L113.334 15.4045H121.574L121.833 14H112.114L110.167 24.5H119.901Z" fill="#004976"/>
<path d="M8.24012 24.4959H10.1211L12.6541 21.6306H20.5337L21.9049 24.4959H23.8333L18.7673 14.4366C18.6488 14.2358 18.4591 14.08 18.218 14.0226C18.056 13.9857 17.894 13.9939 17.7517 14.0472C17.5621 14.121 17.3645 14.2645 17.1985 14.4366L11.8006 20.5075L4.10669 20.9215C4.04742 20.9215 4 20.9707 4 21.0321C4 21.0936 4.04742 21.1428 4.10669 21.1428L10.9075 21.5158L8.23617 24.5L8.24012 24.4959ZM17.7794 15.8918L19.9291 20.3763H13.808L17.7794 15.8918Z" fill="#004976"/>
</svg>
