<svg width="155" height="34" viewBox="0 0 155 34" fill="none" xmlns="http://www.w3.org/2000/svg">
<path d="M14.0445 0L0 8.36597V16.1105H14.0445L28.089 7.74448V0H14.0445Z" fill="currentColor"/>
<path d="M14.0445 16.1017L0 24.4677V32.2122H14.0445L28.089 23.8462V16.1017H14.0445Z" fill="currentColor"/>
<path d="M38.374 12.0776C36.4941 12.0776 34.9629 12.623 33.7803 13.7139C32.5977 14.7904 32.0064 16.1827 32.0064 17.8906C32.0064 19.5986 32.5977 20.9909 33.7803 22.0674C34.9629 23.1439 36.4941 23.6821 38.374 23.6821C39.6924 23.6821 40.8394 23.3662 41.8149 22.7344C42.7905 22.0882 43.5298 21.1911 44.0329 20.0432H40.2778C39.9878 20.4668 39.627 20.7683 39.1956 20.9476C38.7786 21.127 38.3039 21.2167 37.7715 21.2167C36.9388 21.2167 36.2425 21.0085 35.6825 20.5921C35.1225 20.1757 34.7769 19.615 34.6458 18.9111H44.4556V17.8906C44.4556 16.1827 43.8643 14.7904 42.6817 13.7139C41.499 12.623 39.9678 12.0776 38.0879 12.0776H38.374ZM34.6458 16.7148C34.7769 16.0398 35.1082 15.5017 35.6396 15.1008C36.171 14.6999 36.8386 14.4995 37.6423 14.4995C38.4604 14.4995 39.1352 14.6999 39.6666 15.1008C40.212 15.5017 40.5504 16.0398 40.6814 16.7148H34.6458Z" fill="currentColor"/>
<path d="M51.9888 23.6821C53.8687 23.6821 55.3999 23.1367 56.5825 22.0458C57.7651 20.9549 58.3564 19.5698 58.3564 17.8906C58.3564 16.1971 57.7651 14.8048 56.5825 13.7139C55.3999 12.623 53.8687 12.0776 51.9888 12.0776C50.1089 12.0776 48.5777 12.623 47.3951 13.7139C46.2125 14.8048 45.6211 16.1971 45.6211 17.8906C45.6211 19.5698 46.2125 20.9549 47.3951 22.0458C48.5777 23.1367 50.1089 23.6821 51.9888 23.6821ZM51.9888 21.2167C51.0849 21.2167 50.3384 20.9549 49.7493 20.4309C49.1602 19.8924 48.8656 19.0385 48.8656 17.8691C48.8656 16.6997 49.1602 15.8601 49.7493 15.3217C50.3384 14.7833 51.0849 14.514 51.9888 14.514C52.8928 14.514 53.6393 14.7833 54.2284 15.3217C54.8174 15.8601 55.112 16.6997 55.112 17.8691C55.112 19.0385 54.8174 19.8924 54.2284 20.4309C53.6393 20.9549 52.8928 21.2167 51.9888 21.2167Z" fill="currentColor"/>
<path d="M69.7246 17.8906C69.7246 19.5842 69.1333 20.9693 67.9507 22.0458C66.7681 23.1223 65.2369 23.6606 63.357 23.6606C62.0674 23.6606 60.9204 23.3447 59.916 22.7129C58.9117 22.0674 58.1437 21.1839 57.6119 20.0647H61.3669C61.6569 20.4883 62.0099 20.7899 62.4269 20.9693C62.8582 21.1487 63.3402 21.2383 63.8716 21.2383C64.7187 21.2383 65.415 21.0229 65.9608 20.5921C66.5208 20.1613 66.8007 19.6005 66.8007 18.9111V17.9335C66.3405 18.6805 65.7228 19.2485 64.9478 19.6361C64.1728 20.0239 63.3041 20.2179 62.3422 20.2179C60.8181 20.2179 59.5428 19.7438 58.5169 18.7949C57.4909 17.846 56.9773 16.6047 56.9773 15.0724C56.9773 13.5401 57.4909 12.2989 58.5169 11.3499C59.5428 10.401 60.8181 9.92676 62.3422 9.92676C63.3041 9.92676 64.1728 10.1207 64.9478 10.5084C65.7228 10.8962 66.3405 11.4642 66.8007 12.2112V10.1206H69.7246V17.8906ZM66.6266 15.0724C66.6266 14.1379 66.3248 13.4199 65.7228 12.9171C65.1207 12.4143 64.3815 12.1627 63.5055 12.1627C62.6294 12.1627 61.8902 12.4143 61.2881 12.9171C60.686 13.4199 60.385 14.1379 60.385 15.0724C60.385 16.0068 60.686 16.7248 61.2881 17.2277C61.8902 17.7304 62.6294 17.982 63.5055 17.982C64.3815 17.982 65.1207 17.7304 65.7228 17.2277C66.3248 16.7248 66.6266 16.0068 66.6266 15.0724Z" fill="currentColor"/>
<path d="M80.9658 17.8906C80.9658 19.5842 80.3745 20.9693 79.1919 22.0458C78.0093 23.1223 76.4781 23.6606 74.5982 23.6606C73.3086 23.6606 72.1616 23.3447 71.1572 22.7129C70.1529 22.0674 69.3849 21.1839 68.8531 20.0647H72.6081C72.8981 20.4883 73.2511 20.7899 73.6681 20.9693C74.0994 21.1487 74.5814 21.2383 75.1128 21.2383C75.9599 21.2383 76.6562 21.0229 77.202 20.5921C77.762 20.1613 78.0419 19.6005 78.0419 18.9111V6.20312H80.9658V17.8906Z" fill="currentColor"/>
<path d="M92.9697 17.8691C92.9697 19.5698 92.3784 20.9549 91.1958 22.0458C90.0132 23.1367 88.482 23.6821 86.6021 23.6821C84.7222 23.6821 83.191 23.1367 82.0084 22.0458C80.8258 20.9549 80.2345 19.5698 80.2345 17.8691C80.2345 16.1684 80.8258 14.7833 82.0084 13.7139C83.191 12.623 84.7222 12.0776 86.6021 12.0776C88.482 12.0776 90.0132 12.623 91.1958 13.7139C92.3784 14.8048 92.9697 16.1899 92.9697 17.8691ZM89.7252 17.8691C89.7252 16.6997 89.4306 15.8601 88.8415 15.3217C88.2524 14.7833 87.506 14.514 86.6021 14.514C85.6981 14.514 84.9517 14.7833 84.3626 15.3217C83.7736 15.8601 83.479 16.6997 83.479 17.8691C83.479 19.0385 83.7736 19.8924 84.3626 20.4309C84.9517 20.9549 85.6981 21.2167 86.6021 21.2167C87.506 21.2167 88.2524 20.9549 88.8415 20.4309C89.4306 19.8924 89.7252 19.0385 89.7252 17.8691Z" fill="currentColor"/>
<path d="M103.176 23.489L99.9312 19.6361L97.1934 23.489H93.5671L98.1387 17.8691L93.6958 12.2708H97.3221L100.46 16.0398L103.22 12.2708H106.846L102.403 17.8691L106.974 23.489H103.176Z" fill="currentColor"/>
</svg>
